<svg width="524" height="531" viewBox="0 0 524 531" fill="none" xmlns="http://www.w3.org/2000/svg">
<g opacity="0.33">
<path opacity="0.32" d="M518.361 397.409C517.165 414.413 513.431 431.161 507.292 447.152C503.013 458.249 497.246 469.358 487.493 476.534C473.341 486.951 454.1 487.08 436.347 488.194C339.863 494.268 246.448 542.55 150.894 528.365C111.934 522.727 50.4237 504.481 23.396 474.855C8.16791 458.223 6.66637 425.535 5.98868 397.358L518.361 397.422V397.409Z" fill="#61CA3D"/>
<path d="M143.92 378.432C148.291 387.543 153.832 396.102 160.397 403.893C162.988 406.93 166.416 410.082 170.456 409.646C171.319 409.646 172.103 409.172 172.475 408.416C172.582 407.763 172.436 407.109 172.05 406.558L164.21 391.771C162.031 387.44 159.586 383.237 156.915 379.176C155.002 376.408 151.374 370.168 147.733 369.335C141.661 367.925 142.378 375.267 143.92 378.42V378.432Z" fill="white"/>
<path d="M339.333 376.626C349.565 374.78 359.531 371.705 368.978 367.489C372.672 365.811 376.672 363.389 377.23 359.494C377.443 358.686 377.164 357.828 376.499 357.302C375.875 357.033 375.171 357.008 374.533 357.238L357.737 360.916C352.86 361.89 348.05 363.146 343.319 364.658C340.05 365.772 332.888 367.63 331.161 370.821C328.277 376.177 335.772 377.279 339.32 376.626H339.333Z" fill="white"/>
<path d="M248.908 295.412C248.576 296.514 248.244 297.616 247.911 298.718L239.394 327.267C239.022 328.792 238.397 330.24 237.547 331.573C236.63 332.7 235.527 333.687 234.278 334.494C214.824 348.141 193.059 358.328 171.439 368.45L170.243 369.001C168.516 369.886 166.576 370.347 164.622 370.308C162.23 370.129 159.799 368.207 160.025 365.939C160.211 364.004 162.058 362.671 163.692 361.518C172.396 355.393 179.159 347.205 186.322 339.479C193.497 331.752 201.39 324.295 211.276 320.233C213.323 319.387 215.635 318.58 216.711 316.76C217.296 315.748 217.668 314.62 217.801 313.467C218.545 309.033 218.89 304.561 219.847 300.166C220.937 295.054 222.266 290.351 227.993 289.07C234.876 287.417 242.171 288.737 247.965 292.696C248.456 292.991 248.842 293.426 249.054 293.939C249.147 294.439 249.081 294.938 248.895 295.412H248.908Z" fill="#FFAA71"/>
<path d="M247.911 298.68L239.394 327.229C239.022 328.754 238.397 330.202 237.547 331.534C236.63 332.662 235.527 333.649 234.278 334.456C214.824 348.102 193.059 358.289 171.439 368.412L170.243 368.963C169.247 368.886 168.237 368.771 167.227 368.63C170.854 363.069 176.887 359.481 182.455 355.624C189.046 350.845 195.384 345.745 201.43 340.337L216.206 327.575C218.797 325.563 221.043 323.154 222.837 320.45C223.847 318.567 224.604 316.581 225.096 314.518C226.624 308.803 226.77 290.569 233.521 288.288C238.012 286.75 243.101 296.527 247.911 298.693V298.68Z" fill="url(#paint0_linear_425_2465)"/>
<path d="M218.758 258.817C217.043 268.914 216.313 279.152 216.578 289.377C216.525 290.415 216.725 291.453 217.163 292.414C217.841 293.388 218.771 294.17 219.874 294.682C229.906 300.231 241.254 303.165 252.828 303.19C254.197 303.447 255.512 302.588 255.765 301.268C255.765 301.243 255.765 301.204 255.778 301.179C257.226 297.501 258.542 293.76 259.711 289.967C260.535 287.84 260.854 285.559 260.655 283.304C260.15 280.1 257.705 277.537 255.393 275.205L233.188 252.781C230.664 250.232 227.528 245.157 223.621 247.618C220.352 249.616 219.316 255.511 218.744 258.817H218.758Z" fill="#231F20"/>
<path d="M218.758 258.817C217.043 268.914 216.313 279.152 216.578 289.377C216.525 290.415 216.725 291.453 217.163 292.414C217.841 293.388 218.771 294.17 219.874 294.682C229.906 300.231 241.254 303.165 252.828 303.19C254.197 303.447 255.512 302.588 255.765 301.268C255.765 301.243 255.765 301.204 255.778 301.179C257.226 297.501 258.542 293.76 259.711 289.967C260.535 287.84 260.854 285.559 260.655 283.304C260.15 280.1 257.705 277.537 255.393 275.205L233.188 252.781C230.664 250.232 227.528 245.157 223.621 247.618C220.352 249.616 219.316 255.511 218.744 258.817H218.758Z" fill="url(#paint1_linear_425_2465)"/>
<path d="M340.343 357.136C339.692 357.661 338.894 357.982 338.057 358.084C335.612 358.545 333.114 358.674 330.643 358.456C330.031 358.443 329.42 358.289 328.875 357.994C328.224 357.482 327.746 356.803 327.507 356.021C326.324 353.471 325.287 350.857 324.424 348.179C324.118 347.18 323.786 346.18 323.427 345.206C319.667 334.712 313.355 325.204 308.199 315.274C306.126 311.301 304.186 307.098 303.96 302.678C303.947 299.795 304.279 296.912 304.983 294.105C296.851 293.529 288.892 291.517 281.503 288.185C280.414 285.828 280.387 283.15 281.437 280.779C282.394 279.024 283.603 277.396 285.012 275.948L286.035 274.846L294.313 266.056C294.459 265.864 294.672 265.71 294.898 265.621C295.336 265.544 295.775 265.646 296.134 265.915C297.303 266.582 298.393 267.363 299.562 268.017C305.927 271.758 312.066 275.833 317.952 280.241C320.185 281.804 322.218 283.611 323.999 285.648C326.005 288.275 327.546 291.197 328.556 294.31C335.253 312.929 333.672 333.584 340.449 352.164C341.06 353.817 341.632 355.906 340.343 357.136Z" fill="#FFAA71"/>
<path d="M325.407 346.488C324.663 346.18 323.985 345.757 323.414 345.206C319.653 334.712 313.342 325.204 308.186 315.274C306.113 311.301 304.173 307.098 303.947 302.678C303.934 299.795 304.266 296.912 304.97 294.105C296.838 293.529 288.878 291.517 281.49 288.185C280.401 285.828 280.374 283.15 281.424 280.779C282.38 279.024 283.59 277.396 284.998 275.948C287.443 274.705 290.353 274.667 292.825 275.859C296.28 277.294 299.628 278.857 303.123 280.215C305.953 281.317 309.182 282.714 310.245 285.725C310.936 287.686 310.485 289.851 310.75 291.901C311.003 293.439 311.455 294.925 312.106 296.348C314.365 301.947 316.624 307.534 318.869 313.134C320.876 317.798 322.55 322.577 323.905 327.459C325.487 333.674 325.992 340.094 325.38 346.475L325.407 346.488Z" fill="url(#paint2_linear_425_2465)"/>
<path d="M327.228 204.077C326.683 205.691 325.46 206.998 323.866 207.703C320.597 208.997 317.062 207.101 314.126 205.294L300.213 196.696C296.054 194.12 291.828 191.455 288.586 187.919C287.922 187.086 287.138 186.342 286.261 185.727C285.091 185.151 283.829 184.792 282.513 184.677C281.557 184.51 280.6 184.305 279.656 184.074C274.089 182.703 268.893 180.192 264.428 176.732C262.01 175.041 260.123 172.734 258.994 170.069C257.731 166.52 258.635 163.291 260.083 160.036C261.532 156.781 262.395 153.283 265.226 150.592C268.056 147.825 272.003 146.402 276.016 146.697C281.597 147.222 286.088 151.323 289.49 155.641C292.891 159.933 295.682 164.636 297.768 169.646C298.087 170.646 298.632 171.568 299.349 172.337C300.107 172.927 300.957 173.375 301.887 173.657C309.089 176.476 315.109 181.486 320.065 187.303C321.474 188.944 322.789 190.635 324.025 192.378C324.65 193.262 325.261 194.146 325.806 195.081C326.816 196.683 327.467 198.464 327.732 200.322C327.879 201.604 327.719 202.898 327.241 204.102L327.228 204.077Z" fill="#FFAA71"/>
<path d="M359.491 168.314C358.268 169.492 356.78 170.402 355.132 170.953C354.136 171.248 353.192 171.684 352.328 172.222C351.638 172.773 351.04 173.426 350.561 174.157C349.777 175.207 349.02 176.258 348.249 177.309C346.907 179.167 345.605 181.05 344.329 182.96C340.223 189.136 336.423 195.555 331.214 200.912C330.071 202.167 328.716 203.231 327.214 204.064C324.251 205.691 320.49 204.948 318.444 202.308C316.796 200.22 316.185 197.529 316.743 194.966C317.208 192.429 318.205 190.02 319.653 187.867C319.773 187.688 319.893 187.508 320.039 187.329C321.753 185.023 323.666 182.87 325.779 180.884L340.635 166.097C341.326 165.379 341.512 165.187 341.313 164.29C341.02 163.393 340.662 162.509 340.223 161.65C339.771 160.818 339.572 159.882 339.652 158.96C339.825 158.037 340.795 157.191 341.711 157.486C342.11 157.614 342.469 157.922 342.881 157.922C343.293 157.922 343.784 157.371 344.037 156.871C344.821 155.09 346.057 153.514 347.625 152.309C349.286 151.259 351.837 151.182 353.059 152.681C353.338 153.027 353.538 153.437 353.843 153.732C354.614 154.385 355.557 154.821 356.567 155.013C357.591 155.205 358.454 155.846 358.946 156.73C359.159 157.294 359.052 157.922 359.238 158.498C359.477 159.049 359.796 159.549 360.208 159.997C362.069 162.573 361.776 166.071 359.517 168.326L359.491 168.314Z" fill="#FFAA71"/>
<path d="M348.262 177.322C346.92 179.18 345.618 181.063 344.342 182.972C340.236 189.149 336.436 195.568 331.227 200.924C330.084 202.18 328.729 203.244 327.227 204.077C326.683 205.691 325.46 206.998 323.866 207.703C320.597 208.997 317.062 207.101 314.126 205.294L300.213 196.696C296.054 194.12 291.828 191.455 288.586 187.919C287.922 187.086 287.138 186.342 286.261 185.727C285.091 185.151 283.829 184.792 282.513 184.677C281.557 184.51 280.6 184.305 279.656 184.074C279.962 182.152 280.494 180.269 281.251 178.462C281.955 176.399 283.111 174.515 284.639 172.927C290.181 167.814 295.908 176.86 299.814 180.333C305.395 185.292 311.043 190.187 316.757 195.017L317.992 196.068C318.723 196.798 319.64 197.337 320.663 197.631C322.617 198.003 324.384 196.581 325.792 195.158L325.859 195.094L347.412 173.734C348.674 174.323 348.634 175.951 348.262 177.36V177.322Z" fill="url(#paint3_linear_425_2465)"/>
<path d="M289.902 189.559C288.812 194.799 285.649 199.489 283.523 204.41C279.019 214.801 279.165 226.5 280.347 237.712C280.786 242.056 280.068 245.721 275.923 248.027C273.982 249.078 271.564 248.899 269.398 248.63C258.515 247.31 247.207 244.991 238.225 239.186C236.603 238.135 235.075 236.969 233.627 235.701C228.697 231.318 228.604 226.539 230.504 220.67C232.79 213.507 233.574 205.973 232.776 198.515C231.74 188.931 228.139 179.769 226.013 170.351C224.91 165.725 224.392 160.997 224.485 156.243C224.485 155.577 224.485 154.923 224.591 154.27C224.883 150.015 226.093 145.877 228.152 142.109C234.185 131.923 246.343 126.631 258.25 129.027C267.91 131.128 276.746 137.753 282.194 145.582C288.187 154.18 290.486 164.623 290.752 174.861C290.991 179.769 290.712 184.689 289.915 189.546L289.902 189.559Z" fill="#61CA3D"/>
<path d="M254.755 239.378C253.811 241.48 251.273 242.53 248.908 242.53C246.543 242.377 244.231 241.774 242.091 240.762C240.789 240.25 239.46 239.711 238.171 239.109C236.55 238.058 235.022 236.892 233.574 235.624C228.644 231.242 228.551 226.462 230.451 220.593C232.737 213.431 233.521 205.896 232.723 198.439C231.687 188.854 228.086 179.692 225.96 170.274C224.857 165.648 224.339 160.92 224.432 156.166C226.039 155.231 227.727 154.449 229.481 153.808C234.863 151.822 247.792 147.453 250.157 154.859C252.629 162.829 248.868 173.644 249.639 181.999C250.038 186.394 246.835 212.764 247.632 217.108C250.091 230.409 254.795 221.926 255.246 235.432C255.379 236.764 255.207 238.097 254.741 239.353L254.755 239.378Z" fill="url(#paint4_linear_425_2465)"/>
<path d="M228.524 230.947C228.697 230.447 229.016 229.999 229.428 229.64C229.853 229.396 230.345 229.268 230.836 229.281C233.986 229.114 237.055 230.127 240.018 231.139L253.639 235.714C260.469 238.02 267.445 240.352 274.687 240.596C276.414 240.647 278.447 240.724 279.431 242.108C280.414 243.491 279.696 245.426 278.341 246.426C276.919 247.336 275.258 247.835 273.557 247.861C266.461 248.502 259.313 247.669 252.576 245.413C248.483 244.055 244.603 242.172 240.537 240.749C236.869 239.494 233.002 238.827 229.109 238.789C227.209 238.789 226.93 237.866 227.023 235.893C227.195 234.163 227.7 232.484 228.511 230.934L228.524 230.947Z" fill="#231F20"/>
<path d="M228.524 230.947C228.697 230.447 229.016 229.999 229.428 229.64C229.853 229.396 230.345 229.268 230.836 229.281C233.986 229.114 237.055 230.127 240.018 231.139L253.639 235.714C260.469 238.02 267.445 240.352 274.687 240.596C276.414 240.647 278.447 240.724 279.431 242.108C280.414 243.491 279.696 245.426 278.341 246.426C276.919 247.336 275.258 247.835 273.557 247.861C266.461 248.502 259.313 247.669 252.576 245.413C248.483 244.055 244.603 242.172 240.537 240.749C236.869 239.494 233.002 238.827 229.109 238.789C227.209 238.789 226.93 237.866 227.023 235.893C227.195 234.163 227.7 232.484 228.511 230.934L228.524 230.947Z" fill="url(#paint5_linear_425_2465)"/>
<path d="M248.31 129.744L248.576 129.821C251.273 130.449 253.918 131.244 256.495 132.217C257.984 132.743 259.379 133.486 260.615 134.447C261.625 135.28 262.422 136.318 263.472 137.087C264.787 138.253 266.807 138.253 268.122 137.087C269.372 136.01 270.009 134.434 269.823 132.832C269.199 129.347 271.391 125.106 271.179 123.145C270.753 119.16 268.043 119.083 265.345 116.021C262.94 113.292 259.286 110.152 255.552 112.51C253.054 114.124 252.469 116.098 251.858 118.801C251.38 120.698 250.728 122.543 249.905 124.324C249.254 125.823 247.898 127.31 247.725 128.924C247.686 129.142 247.725 129.373 247.832 129.565C247.965 129.68 248.124 129.744 248.283 129.77L248.31 129.744Z" fill="#FFAA71"/>
<path d="M263.405 125.605C264.335 127.784 265.664 129.975 267.83 131.051C268.136 131.231 268.495 131.32 268.853 131.282C269.518 131.167 269.85 130.449 270.023 129.821C270.7 127.438 270.82 124.824 272.202 122.761C272.547 122.261 272.986 121.71 272.84 121.108C272.733 120.8 272.547 120.518 272.295 120.313C270.209 118.404 267.578 117.136 264.747 116.687C262.01 116.431 261.572 118.443 261.89 120.608C262.169 122.325 262.674 124.004 263.405 125.593V125.605Z" fill="url(#paint6_linear_425_2465)"/>
<path d="M287.098 96.3519C287.098 99.6193 287.257 103.169 289.45 105.667C290.074 106.398 290.925 107.141 290.845 108.102C290.739 109.294 289.317 109.857 288.36 110.626C286.314 112.279 286.34 115.265 286.34 117.84C286.34 120.416 285.835 123.504 283.404 124.58C282.513 124.901 281.57 125.055 280.613 125.016C277.065 125.221 273.504 124.862 270.076 123.965C266.634 123.03 263.618 120.993 261.532 118.199C260.322 116.469 259.605 114.432 258.263 112.766C256.921 111.1 254.874 109.729 253.559 107.897C251.699 105.245 251.473 101.836 252.961 98.9787C253.094 98.6711 253.32 98.4149 253.612 98.2355C254.702 97.7357 255.951 99.3374 256.947 98.7352C256.695 92.354 260.402 86.4469 266.368 83.7048C271.87 81.2958 277.464 82.5131 282.567 85.1271C287.47 87.5873 287.164 91.3801 287.084 96.3519H287.098Z" fill="#FFAA71"/>
<path d="M287.377 84.9734C289.131 83.5767 290.686 81.975 292.028 80.1939C290.327 79.9248 288.599 79.771 286.872 79.7582C287.855 79.2328 288.719 78.5153 289.423 77.6567C288.001 77.298 286.54 77.0673 285.065 77.0032C285.397 76.5932 285.703 75.9525 285.317 75.6322C285.211 75.5553 285.091 75.4912 284.958 75.4528C280.44 73.6589 275.683 72.5056 270.82 72.0187C265.531 71.6471 260.216 72.5441 255.366 74.6199C250.582 76.7213 246.091 80.2067 244.696 85.1143C243.247 90.1885 245.347 95.455 246.702 100.555C247.925 105.168 248.523 109.909 249.28 114.624C249.28 115.47 249.679 116.277 250.37 116.815C251.406 117.366 252.615 116.572 253.506 115.829L256.017 113.727C256.522 113.381 256.907 112.907 257.16 112.369C257.545 111.203 256.575 110.075 255.818 109.063C253.984 106.59 253.306 103.489 253.984 100.516C254.037 100.106 254.25 99.7347 254.555 99.4656C255.233 98.9787 256.256 99.5297 256.589 100.273C256.828 101.055 256.961 101.875 256.974 102.682C257.014 103.515 257.545 104.245 258.356 104.553C259.1 102.823 258.728 100.862 258.715 98.9787C258.675 91.1752 264.933 84.6786 272.999 84.1277C275.55 83.9355 278.102 84.6146 280.175 86.0497C282.593 87.5489 285.012 86.716 287.364 84.9605L287.377 84.9734Z" fill="#231F20"/>
<path d="M250.901 159.036C248.775 161.855 245.732 163.918 242.264 164.905C240.337 165.533 238.371 165.994 236.364 166.289C230.81 167.147 225.149 167.276 219.568 166.661C217.535 166.11 215.356 166.737 213.947 168.262C208.047 173.003 200.752 175.758 193.191 177.257C190.933 177.706 188.66 178.039 186.375 178.308C183.345 178.629 180.156 178.795 177.326 177.706C174.495 176.617 172.117 173.913 172.422 170.979C172.755 167.622 176.183 165.469 179.226 163.829C184.023 161.228 188.833 158.626 193.643 156.038C198.002 153.706 202.347 151.361 207.144 150.272C208.22 150.105 209.27 149.785 210.24 149.324C211.316 148.606 212.26 147.684 212.991 146.633C217.163 141.52 222.611 137.522 228.817 134.972C231.514 133.704 234.53 133.191 237.52 133.486C241.36 134.075 243.885 136.369 246.171 139.15C248.456 141.93 251.26 144.301 252.429 147.965C253.625 151.694 253.054 155.731 250.875 159.011L250.901 159.036Z" fill="#FFAA71"/>
<path d="M192.567 176.732C194.029 179.436 195.211 182.28 196.088 185.215L202.613 204.82C203.237 206.716 204.925 206.921 206.546 207.972C208.393 209.138 210.081 210.522 211.582 212.085C211.795 212.29 211.967 212.534 212.074 212.803C212.286 213.482 211.688 214.148 211.077 214.532C210.466 214.917 209.748 215.288 209.483 215.955C209.124 216.826 209.748 217.774 210.373 218.492C211.117 219.12 211.542 220.03 211.542 220.991C211.356 221.952 210.32 222.503 209.363 222.759C208.353 222.9 207.396 223.259 206.559 223.81C206.24 224.13 205.895 224.425 205.536 224.694C204.221 225.45 202.546 224.143 201.031 224.425C200.699 224.514 200.367 224.617 200.035 224.745C198.148 225.36 196.713 224.604 195.211 223.617C193.71 222.631 192.354 221.721 191.69 219.863C191.185 218.261 191.052 216.583 191.305 214.93C191.504 213.943 191.557 212.944 191.464 211.944C191.278 211.098 190.972 210.291 190.534 209.535C188.899 206.345 187.185 203.192 185.391 200.091C181.684 193.685 177.591 187.419 175.146 180.474C174.243 177.924 173.592 175.053 174.788 172.619C175.797 170.697 177.684 169.339 179.877 168.941C185.312 167.865 190.069 172.568 192.54 176.758L192.567 176.732Z" fill="#FFAA71"/>
<path d="M226.172 262.558C230.85 272.002 239.699 278.87 249.094 284.06C257.652 288.788 266.847 292.363 276.401 294.682C277.198 294.938 278.049 294.99 278.872 294.823C279.789 294.439 280.547 293.785 281.052 292.939C287.284 284.572 292.652 275.641 297.09 266.274C297.595 265.429 297.834 264.455 297.795 263.481C297.462 262.238 296.665 261.149 295.562 260.418L285.503 251.936C283.43 250.014 281.078 248.386 278.527 247.118C276.016 246.182 273.411 245.478 270.754 245.016C263.857 243.363 257.466 240.301 250.968 237.584C245.772 235.406 238.304 231.575 232.418 232.459C220.126 234.278 222.492 255.152 226.172 262.545V262.558Z" fill="#231F20"/>
<path d="M226.172 262.558C230.85 272.002 239.699 278.87 249.094 284.06C257.652 288.788 266.847 292.363 276.401 294.682C277.198 294.938 278.049 294.99 278.872 294.823C279.789 294.439 280.547 293.785 281.052 292.939C287.284 284.572 292.652 275.641 297.09 266.274C297.595 265.429 297.834 264.455 297.795 263.481C297.462 262.238 296.665 261.149 295.562 260.418L285.503 251.936C283.43 250.014 281.078 248.386 278.527 247.118C276.016 246.182 273.411 245.478 270.754 245.016C263.857 243.363 257.466 240.301 250.968 237.584C245.772 235.406 238.304 231.575 232.418 232.459C220.126 234.278 222.492 255.152 226.172 262.545V262.558Z" fill="url(#paint7_linear_425_2465)"/>
<path d="M169.127 368.822C168.25 368.54 167.32 368.502 166.456 368.233C164.144 367.554 162.603 365.503 161.433 363.466C161.181 362.941 160.809 362.467 160.344 362.095C159.347 361.518 158.085 361.57 157.128 362.223C156.211 362.877 155.334 363.581 154.497 364.324C153.141 365.157 151.746 365.926 150.311 366.618C148.849 367.323 147.773 368.617 147.388 370.142C147.308 371.41 147.6 372.666 148.238 373.781C153.567 385.429 160.596 396.282 169.114 406.007C169.565 406.494 170.11 407.058 170.788 406.968C171.24 406.879 171.652 406.622 171.931 406.264C174.429 403.611 175.598 400.036 175.12 396.487C174.615 392.925 172.489 389.785 171.173 386.415C169.977 383.353 169.459 380.085 169.632 376.818C169.778 374.409 172.263 369.847 169.14 368.822H169.127Z" fill="#231F20"/>
<path d="M337.539 350.806C337.074 351.562 336.835 352.433 336.383 353.215C335.214 355.24 332.808 356.278 330.51 356.957C329.925 357.085 329.367 357.328 328.889 357.674C328.105 358.507 327.905 359.699 328.37 360.724C328.835 361.723 329.354 362.697 329.925 363.645C330.483 365.106 330.975 366.58 331.387 368.079C331.799 369.604 332.888 370.872 334.363 371.564C335.639 371.897 336.981 371.885 338.243 371.513C351.159 368.912 363.623 364.53 375.237 358.507C375.835 358.2 376.499 357.777 376.566 357.136C376.566 356.688 376.393 356.252 376.087 355.919C373.922 353.01 370.533 351.165 366.826 350.87C363.105 350.614 359.477 351.921 355.783 352.51C352.435 352.997 349.007 352.818 345.724 351.985C343.346 351.37 339.24 348.09 337.552 350.819L337.539 350.806Z" fill="#231F20"/>
<path d="M169.127 368.822C168.25 368.54 167.32 368.502 166.456 368.233C164.144 367.554 162.603 365.503 161.433 363.466C161.181 362.941 160.809 362.467 160.344 362.095C159.347 361.518 158.085 361.57 157.128 362.223C156.211 362.877 155.334 363.581 154.497 364.324C153.141 365.157 151.746 365.926 150.311 366.618C148.849 367.323 147.773 368.617 147.388 370.142C147.308 371.41 147.6 372.666 148.238 373.781C153.567 385.429 160.596 396.282 169.114 406.007C169.565 406.494 170.11 407.058 170.788 406.968C171.24 406.879 171.652 406.622 171.931 406.264C174.429 403.611 175.598 400.036 175.12 396.487C174.615 392.925 172.489 389.785 171.173 386.415C169.977 383.353 169.459 380.085 169.632 376.818C169.778 374.409 172.263 369.847 169.14 368.822H169.127Z" fill="url(#paint8_linear_425_2465)"/>
<path d="M337.539 350.806C337.074 351.562 336.835 352.433 336.383 353.215C335.214 355.24 332.808 356.278 330.51 356.957C329.925 357.085 329.367 357.328 328.889 357.674C328.105 358.507 327.905 359.699 328.37 360.724C328.835 361.723 329.354 362.697 329.925 363.645C330.483 365.106 330.975 366.58 331.387 368.079C331.799 369.604 332.888 370.872 334.363 371.564C335.639 371.897 336.981 371.885 338.243 371.513C351.159 368.912 363.623 364.53 375.237 358.507C375.835 358.2 376.499 357.777 376.566 357.136C376.566 356.688 376.393 356.252 376.087 355.919C373.922 353.01 370.533 351.165 366.826 350.87C363.105 350.614 359.477 351.921 355.783 352.51C352.435 352.997 349.007 352.818 345.724 351.985C343.346 351.37 339.24 348.09 337.552 350.819L337.539 350.806Z" fill="url(#paint9_linear_425_2465)"/>
<path d="M248.443 137.292C247.752 137.868 246.928 138.522 246.064 138.265C245.746 138.163 245.453 137.996 245.201 137.778C243.035 136.151 240.656 134.806 238.131 133.755C237.6 133.537 236.936 133.05 237.228 132.563C237.321 132.435 237.441 132.333 237.573 132.256C239.886 130.821 242.357 129.616 244.935 128.694C245.373 128.501 245.839 128.399 246.317 128.373C246.915 128.424 247.486 128.591 248.004 128.86C249.44 129.514 255.618 131.436 255.087 132.973C254.555 134.511 248.443 135.382 248.443 137.292Z" fill="url(#paint10_linear_425_2465)"/>
<path d="M242.437 165.943C242.105 165.994 241.772 166.033 241.427 166.071C238.012 166.468 234.69 166.622 231.275 166.866C227.621 167.135 223.156 167.532 219.568 166.661C217.535 166.11 215.356 166.738 213.947 168.262C208.047 173.003 200.752 175.758 193.191 177.258C193.059 177.168 192.939 177.053 192.819 176.95C189.497 173.977 194.999 172.311 197.178 171.03C200.832 168.916 204.207 166.379 207.237 163.483C207.702 162.983 208.247 162.547 208.845 162.201C210.373 161.42 212.22 161.932 213.907 162.291C219.754 163.534 225.774 162.855 231.634 162.086C236.975 161.381 242.078 161.253 246.423 157.729C249.506 155.244 251.632 151.681 252.31 147.863C253.745 150.067 253.785 152.937 252.948 155.41C252.11 157.883 250.476 160.049 248.722 162.035C247.46 163.457 246.051 164.867 244.231 165.507C243.646 165.712 243.035 165.828 242.41 165.917L242.437 165.943Z" fill="url(#paint11_linear_425_2465)"/>
<path d="M355.706 417.079C349.328 417.079 345.156 412.235 346.391 406.277L379.572 245.055C381.086 238.866 386.734 234.432 393.338 234.253C399.703 234.253 403.875 239.096 402.64 245.055L369.446 406.277C367.931 412.453 362.297 416.886 355.72 417.079H355.706Z" fill="#231F20"/>
<path d="M355.706 417.079C349.328 417.079 345.156 412.235 346.391 406.277L379.572 245.055C381.086 238.866 386.734 234.432 393.338 234.253C399.703 234.253 403.875 239.096 402.64 245.055L369.446 406.277C367.931 412.453 362.297 416.886 355.72 417.079H355.706Z" fill="url(#paint12_linear_425_2465)"/>
<path d="M351.547 400.639H101.228C90.983 400.639 82.6779 408.647 82.6779 418.526V426.778C82.6779 436.658 90.983 444.666 101.228 444.666H351.547C361.792 444.666 370.097 436.658 370.097 426.778V418.526C370.097 408.647 361.792 400.639 351.547 400.639Z" fill="#231F20"/>
<path d="M312.892 400.639H93.8531C84.2173 400.639 76.406 408.171 76.406 417.463V427.842C76.406 437.134 84.2173 444.666 93.8531 444.666H312.892C322.528 444.666 330.34 437.134 330.34 427.842V417.463C330.34 408.171 322.528 400.639 312.892 400.639Z" fill="#231F20"/>
<path d="M330.326 417.45V427.855C330.326 437.132 322.526 444.641 312.919 444.641H93.8398C84.2193 444.641 76.4326 437.119 76.4326 427.855V417.45C76.4326 408.173 84.2326 400.664 93.8398 400.664H312.892C322.513 400.664 330.3 408.186 330.3 417.45H330.326Z" fill="url(#paint13_linear_425_2465)"/>
<path d="M94.6637 413.004H306.381C312.069 413.004 316.68 417.45 316.68 422.922C316.68 428.406 312.069 432.839 306.381 432.839H94.6637C88.9764 432.839 84.3655 428.393 84.3655 422.922C84.3655 417.437 88.9764 413.004 94.6637 413.004Z" fill="#61CA3D"/>
<path d="M446.251 199.72L403.238 249.54H298.674L271.102 241.044L267.833 240.045L266.743 232.049L368.396 227.18L398.68 194.505L410.4 195.632L431.475 197.631L446.251 199.72Z" fill="#231F20"/>
<path d="M446.251 199.72L403.238 249.54H298.674L271.102 241.044L271.035 240.519L372.688 235.649L410.4 195.632L446.251 199.72Z" fill="url(#paint14_linear_425_2465)"/>
<path d="M355.281 238.878C355.281 239.583 355.201 240.288 355.069 240.98L321.862 402.15C321.809 402.407 321.742 402.676 321.663 402.932C319.005 401.433 315.975 400.638 312.892 400.638H299.126L332.001 240.98C333.515 234.791 339.163 230.345 345.754 230.178C351.361 230.152 355.281 233.92 355.281 238.891V238.878Z" fill="#231F20"/>
</g>
<defs>
<linearGradient id="paint0_linear_425_2465" x1="184.461" y1="160.907" x2="210.254" y2="368.214" gradientUnits="userSpaceOnUse">
<stop/>
<stop offset="0.15" stop-opacity="0.47"/>
<stop offset="1" stop-opacity="0"/>
</linearGradient>
<linearGradient id="paint1_linear_425_2465" x1="257.638" y1="271.22" x2="195.656" y2="285.46" gradientUnits="userSpaceOnUse">
<stop/>
<stop offset="0.13" stop-opacity="0.69"/>
<stop offset="1" stop-opacity="0"/>
</linearGradient>
<linearGradient id="paint2_linear_425_2465" x1="281.424" y1="148.849" x2="307.216" y2="356.144" gradientUnits="userSpaceOnUse">
<stop/>
<stop offset="0.13" stop-opacity="0.69"/>
<stop offset="1" stop-opacity="0"/>
</linearGradient>
<linearGradient id="paint3_linear_425_2465" x1="259.631" y1="203.013" x2="329.614" y2="181.008" gradientUnits="userSpaceOnUse">
<stop/>
<stop offset="0.13" stop-opacity="0.69"/>
<stop offset="1" stop-opacity="0"/>
</linearGradient>
<linearGradient id="paint4_linear_425_2465" x1="70.3838" y1="179.205" x2="310.455" y2="204.774" gradientUnits="userSpaceOnUse">
<stop/>
<stop offset="0.13" stop-opacity="0.69"/>
<stop offset="1" stop-opacity="0"/>
</linearGradient>
<linearGradient id="paint5_linear_425_2465" x1="250.742" y1="223.015" x2="258.019" y2="272.58" gradientUnits="userSpaceOnUse">
<stop/>
<stop offset="0.13" stop-opacity="0.69"/>
<stop offset="1" stop-opacity="0"/>
</linearGradient>
<linearGradient id="paint6_linear_425_2465" x1="285.782" y1="102.707" x2="249.617" y2="144.787" gradientUnits="userSpaceOnUse">
<stop/>
<stop offset="0.13" stop-opacity="0.69"/>
<stop offset="1" stop-opacity="0"/>
</linearGradient>
<linearGradient id="paint7_linear_425_2465" x1="279.271" y1="229.076" x2="220.379" y2="316.769" gradientUnits="userSpaceOnUse">
<stop/>
<stop offset="0.13" stop-opacity="0.69"/>
<stop offset="1" stop-opacity="0"/>
</linearGradient>
<linearGradient id="paint8_linear_425_2465" x1="167.067" y1="333.508" x2="153.378" y2="463.61" gradientUnits="userSpaceOnUse">
<stop/>
<stop offset="0.13" stop-opacity="0.69"/>
<stop offset="1" stop-opacity="0"/>
</linearGradient>
<linearGradient id="paint9_linear_425_2465" x1="355.172" y1="333.187" x2="341.482" y2="463.289" gradientUnits="userSpaceOnUse">
<stop/>
<stop offset="0.13" stop-opacity="0.69"/>
<stop offset="1" stop-opacity="0"/>
</linearGradient>
<linearGradient id="paint10_linear_425_2465" x1="77.0545" y1="116.572" x2="317.126" y2="142.141" gradientUnits="userSpaceOnUse">
<stop/>
<stop offset="0.13" stop-opacity="0.69"/>
<stop offset="1" stop-opacity="0"/>
</linearGradient>
<linearGradient id="paint11_linear_425_2465" x1="227.448" y1="79.5532" x2="221.812" y2="186.032" gradientUnits="userSpaceOnUse">
<stop/>
<stop offset="0.13" stop-opacity="0.69"/>
<stop offset="1" stop-opacity="0"/>
</linearGradient>
<linearGradient id="paint12_linear_425_2465" x1="349.009" y1="322.193" x2="470.163" y2="339.943" gradientUnits="userSpaceOnUse">
<stop/>
<stop offset="0.13" stop-opacity="0.69"/>
<stop offset="1" stop-opacity="0"/>
</linearGradient>
<linearGradient id="paint13_linear_425_2465" x1="321.091" y1="357.828" x2="138.811" y2="465.763" gradientUnits="userSpaceOnUse">
<stop/>
<stop offset="0.13" stop-opacity="0.69"/>
<stop offset="1" stop-opacity="0"/>
</linearGradient>
<linearGradient id="paint14_linear_425_2465" x1="354.617" y1="217.211" x2="446.243" y2="294.044" gradientUnits="userSpaceOnUse">
<stop/>
<stop offset="0.13" stop-opacity="0.69"/>
<stop offset="1" stop-opacity="0"/>
</linearGradient>
</defs>
</svg>
