<svg width="300" height="300" viewBox="0 0 300 300" fill="none" xmlns="http://www.w3.org/2000/svg">
<path opacity="0.18" d="M296.954 214.397C297.076 217.778 297.015 221.166 296.771 224.547C296.087 234.154 293.949 243.615 290.434 252.65C287.984 258.919 284.683 265.196 279.099 269.25C270.997 275.136 259.981 275.208 249.817 275.838C194.578 279.269 141.096 306.547 86.3899 298.533C64.0843 295.348 28.8686 285.039 13.3946 268.302C4.6763 258.905 3.81664 240.437 3.42865 224.518C3.26889 217.764 3.19281 211.473 2.63745 206.528C-0.960958 174.501 -3.82904 139.448 14.9618 112.633C31.052 89.6701 60.2805 77.2402 75.8 53.9439C84.4347 40.9637 88.5961 24.8923 100.662 14.6992C111.335 5.6645 126.201 2.93526 140.412 1.32088C155.566 -0.402091 171.352 -1.19118 185.685 3.78226C200.017 8.75571 211.391 18.8908 222.437 28.8015L273.743 74.8729C283.215 83.3719 293.006 92.3415 297.342 104.026C304.919 124.397 294.002 146.434 292.891 168.051C292.062 183.521 296.391 198.869 296.962 214.419L296.954 214.397Z" fill="#61CA3D"/>
<path opacity="0.32" d="M296.771 224.525C296.087 234.132 293.949 243.594 290.434 252.628C287.985 258.898 284.683 265.174 279.099 269.228C270.997 275.114 259.981 275.186 249.817 275.816C194.578 279.248 141.096 306.525 86.3899 298.511C64.0843 295.326 28.8686 285.017 13.3946 268.28C4.6763 258.883 3.81664 240.416 3.42865 224.496L296.771 224.532V224.525Z" fill="#61CA3D"/>
<path d="M82.3967 213.804C84.8996 218.951 88.072 223.787 91.8302 228.188C93.3137 229.904 95.2764 231.685 97.5892 231.439C98.0837 231.439 98.5325 231.171 98.7455 230.744C98.8064 230.374 98.7227 230.005 98.5021 229.694L94.0136 221.34C92.7659 218.893 91.3661 216.518 89.837 214.223C88.7415 212.66 86.6646 209.134 84.5801 208.664C81.1034 207.867 81.5142 212.015 82.3967 213.796V213.804Z" fill="white"/>
<path d="M194.275 212.783C200.132 211.74 205.838 210.003 211.247 207.621C213.362 206.673 215.652 205.305 215.972 203.104C216.093 202.648 215.933 202.163 215.553 201.866C215.196 201.714 214.792 201.699 214.427 201.83L204.811 203.907C202.019 204.457 199.265 205.167 196.557 206.021C194.685 206.651 190.585 207.701 189.596 209.503C187.945 212.529 192.236 213.152 194.267 212.783H194.275Z" fill="white"/>
<path d="M142.505 166.9C142.314 167.522 142.124 168.145 141.934 168.767L137.058 184.897C136.845 185.758 136.487 186.576 136 187.329C135.475 187.966 134.844 188.524 134.129 188.98C122.991 196.69 110.53 202.445 98.1521 208.164L97.4674 208.475C96.4784 208.975 95.3677 209.236 94.2494 209.214C92.88 209.112 91.4878 208.027 91.6172 206.745C91.7237 205.652 92.7811 204.899 93.7169 204.248C98.6999 200.787 102.572 196.161 106.673 191.796C110.781 187.431 115.3 183.217 120.96 180.922C122.131 180.445 123.455 179.988 124.071 178.96C124.406 178.389 124.619 177.752 124.695 177.1C125.121 174.595 125.319 172.069 125.867 169.585C126.491 166.697 127.251 164.04 130.53 163.316C134.471 162.382 138.648 163.128 141.964 165.365C142.246 165.531 142.467 165.778 142.588 166.067C142.642 166.35 142.604 166.632 142.497 166.9H142.505Z" fill="#FFAA71"/>
<path d="M141.934 168.746L137.058 184.875C136.845 185.737 136.487 186.555 136 187.308C135.475 187.945 134.844 188.502 134.129 188.958C122.991 196.668 110.53 202.423 98.1521 208.142L97.4674 208.454C96.8969 208.41 96.3187 208.345 95.7405 208.265C97.8174 205.124 101.271 203.097 104.459 200.918C108.232 198.217 111.861 195.336 115.323 192.281L123.782 185.071C125.266 183.934 126.551 182.573 127.578 181.045C128.157 179.981 128.59 178.859 128.872 177.694C129.747 174.465 129.83 164.163 133.695 162.875C136.266 162.006 139.18 167.53 141.934 168.753V168.746Z" fill="url(#paint0_linear_20_229)"/>
<path d="M125.243 146.224C124.261 151.929 123.843 157.713 123.995 163.49C123.965 164.076 124.079 164.663 124.33 165.206C124.718 165.756 125.25 166.198 125.882 166.487C131.626 169.622 138.123 171.28 144.749 171.294C145.532 171.439 146.286 170.954 146.43 170.208C146.43 170.194 146.43 170.172 146.438 170.157C147.267 168.08 148.02 165.966 148.69 163.823C149.161 162.621 149.344 161.333 149.23 160.059C148.941 158.249 147.541 156.801 146.217 155.483L133.505 142.814C132.059 141.374 130.264 138.507 128.027 139.897C126.156 141.026 125.562 144.356 125.235 146.224H125.243Z" fill="#231F20"/>
<path d="M125.243 146.224C124.261 151.929 123.843 157.713 123.995 163.49C123.965 164.076 124.079 164.663 124.33 165.206C124.718 165.756 125.25 166.198 125.882 166.487C131.626 169.622 138.123 171.28 144.749 171.294C145.532 171.439 146.286 170.954 146.43 170.208C146.43 170.194 146.43 170.172 146.438 170.157C147.267 168.08 148.02 165.966 148.69 163.823C149.161 162.621 149.344 161.333 149.23 160.059C148.941 158.249 147.541 156.801 146.217 155.483L133.505 142.814C132.059 141.374 130.264 138.507 128.027 139.897C126.156 141.026 125.562 144.356 125.235 146.224H125.243Z" fill="url(#paint1_linear_20_229)"/>
<path d="M194.853 201.772C194.48 202.068 194.023 202.249 193.544 202.307C192.144 202.568 190.714 202.64 189.299 202.517C188.949 202.51 188.599 202.423 188.287 202.257C187.915 201.967 187.641 201.583 187.504 201.142C186.827 199.701 186.233 198.224 185.739 196.711C185.564 196.147 185.374 195.582 185.168 195.032C183.015 189.103 179.402 183.731 176.45 178.121C175.263 175.876 174.152 173.502 174.023 171.004C174.015 169.375 174.206 167.747 174.609 166.161C169.953 165.835 165.396 164.699 161.166 162.817C160.542 161.485 160.527 159.972 161.128 158.632C161.676 157.64 162.368 156.721 163.175 155.903L163.76 155.28L168.5 150.314C168.584 150.206 168.705 150.119 168.835 150.068C169.086 150.025 169.337 150.083 169.542 150.235C170.212 150.611 170.835 151.053 171.505 151.422C175.149 153.536 178.664 155.838 182.034 158.328C183.312 159.211 184.476 160.232 185.495 161.383C186.644 162.867 187.527 164.518 188.105 166.277C191.939 176.796 191.034 188.466 194.914 198.963C195.264 199.897 195.591 201.077 194.853 201.772Z" fill="#FFAA71"/>
<path d="M186.302 195.756C185.876 195.582 185.488 195.343 185.161 195.032C183.008 189.103 179.394 183.731 176.442 178.121C175.255 175.876 174.145 173.502 174.015 171.004C174.008 169.376 174.198 167.747 174.601 166.161C169.945 165.835 165.388 164.699 161.159 162.817C160.535 161.485 160.519 159.972 161.121 158.632C161.668 157.641 162.361 156.721 163.167 155.903C164.567 155.201 166.233 155.179 167.648 155.852C169.626 156.663 171.543 157.546 173.544 158.314C175.164 158.936 177.013 159.725 177.621 161.427C178.017 162.534 177.758 163.758 177.911 164.916C178.055 165.785 178.314 166.625 178.687 167.428C179.98 170.592 181.273 173.748 182.559 176.912C183.708 179.547 184.666 182.247 185.442 185.005C186.347 188.516 186.636 192.143 186.287 195.749L186.302 195.756Z" fill="url(#paint2_linear_20_229)"/>
<path d="M187.344 115.298C187.032 116.21 186.332 116.948 185.419 117.346C183.548 118.077 181.524 117.006 179.843 115.985L171.878 111.128C169.497 109.673 167.077 108.167 165.221 106.169C164.841 105.698 164.392 105.278 163.89 104.931C163.22 104.605 162.497 104.402 161.744 104.337C161.197 104.243 160.649 104.127 160.109 103.997C156.921 103.222 153.947 101.803 151.39 99.8487C150.006 98.8931 148.925 97.5901 148.279 96.0843C147.556 94.079 148.073 92.2546 148.903 90.4158C149.732 88.577 150.226 86.6007 151.847 85.0804C153.467 83.5167 155.727 82.7132 158.024 82.8797C161.219 83.1765 163.791 85.4931 165.738 87.9327C167.686 90.3579 169.283 93.0148 170.478 95.8454C170.66 96.41 170.972 96.9313 171.383 97.3656C171.817 97.6986 172.304 97.952 172.836 98.1113C176.96 99.704 180.406 102.535 183.243 105.821C184.05 106.748 184.803 107.703 185.511 108.688C185.868 109.188 186.218 109.687 186.53 110.216C187.108 111.12 187.481 112.127 187.633 113.176C187.717 113.9 187.625 114.632 187.352 115.312L187.344 115.298Z" fill="#FFAA71"/>
<path d="M205.815 95.0924C205.115 95.7584 204.263 96.2724 203.32 96.5837C202.749 96.7502 202.209 96.9964 201.715 97.3004C201.319 97.6117 200.977 97.9809 200.703 98.3935C200.254 98.9872 199.821 99.5808 199.379 100.174C198.611 101.224 197.865 102.288 197.135 103.367C194.784 106.856 192.608 110.483 189.626 113.509C188.972 114.219 188.196 114.82 187.336 115.29C185.64 116.21 183.487 115.79 182.315 114.298C181.372 113.118 181.022 111.598 181.342 110.15C181.608 108.717 182.178 107.356 183.008 106.14C183.076 106.038 183.145 105.937 183.228 105.836C184.21 104.533 185.305 103.316 186.515 102.194L195.02 93.84C195.416 93.4346 195.522 93.326 195.408 92.8192C195.241 92.3125 195.035 91.813 194.784 91.3279C194.526 90.8574 194.411 90.3289 194.457 89.8077C194.556 89.2864 195.111 88.8086 195.636 88.9751C195.865 89.0475 196.07 89.2213 196.306 89.2213C196.542 89.2213 196.823 88.91 196.968 88.6276C197.416 87.6214 198.124 86.7309 199.022 86.0504C199.973 85.4568 201.433 85.4134 202.133 86.2604C202.293 86.4558 202.407 86.6875 202.582 86.854C203.023 87.2232 203.563 87.4693 204.142 87.5779C204.727 87.6865 205.222 88.0485 205.503 88.548C205.625 88.8665 205.564 89.2213 205.671 89.547C205.808 89.8583 205.99 90.1407 206.226 90.394C207.291 91.8492 207.124 93.8255 205.831 95.0996L205.815 95.0924Z" fill="#FFAA71"/>
<path d="M199.387 100.182C198.618 101.231 197.873 102.296 197.143 103.374C194.792 106.864 192.616 110.491 189.634 113.517C188.98 114.226 188.204 114.827 187.344 115.297C187.032 116.21 186.332 116.948 185.419 117.346C183.548 118.077 181.524 117.006 179.843 115.985L171.878 111.128C169.496 109.672 167.077 108.167 165.221 106.169C164.841 105.698 164.392 105.278 163.89 104.931C163.22 104.605 162.497 104.402 161.744 104.337C161.197 104.243 160.649 104.127 160.109 103.997C160.284 102.911 160.588 101.847 161.022 100.826C161.425 99.6605 162.087 98.5963 162.962 97.6986C166.134 94.8101 169.413 99.9211 171.649 101.883C174.845 104.685 178.078 107.45 181.349 110.179L182.057 110.773C182.475 111.186 183 111.49 183.586 111.656C184.704 111.866 185.716 111.062 186.522 110.259L186.56 110.223L198.9 98.1547C199.623 98.4877 199.6 99.4071 199.387 100.203V100.182Z" fill="url(#paint3_linear_20_229)"/>
<path d="M165.974 107.095C165.35 110.056 163.54 112.706 162.322 115.486C159.743 121.357 159.827 127.966 160.504 134.301C160.755 136.755 160.344 138.825 157.971 140.128C156.86 140.722 155.476 140.621 154.236 140.469C148.005 139.723 141.531 138.413 136.388 135.133C135.46 134.54 134.585 133.881 133.756 133.164C130.933 130.688 130.88 127.988 131.968 124.672C133.277 120.626 133.725 116.369 133.269 112.156C132.676 106.74 130.614 101.564 129.397 96.2434C128.765 93.63 128.469 90.9586 128.522 88.2728C128.522 87.8964 128.522 87.5272 128.583 87.158C128.75 84.7545 129.442 82.4162 130.621 80.2878C134.075 74.5325 141.036 71.5427 147.853 72.8964C153.384 74.0837 158.443 77.8264 161.562 82.2497C164.993 87.1073 166.309 93.0074 166.461 98.7916C166.598 101.564 166.438 104.344 165.982 107.088L165.974 107.095Z" fill="#61CA3D"/>
<path d="M145.852 135.242C145.312 136.429 143.859 137.023 142.505 137.023C141.15 136.936 139.827 136.596 138.602 136.024C137.856 135.734 137.096 135.43 136.358 135.09C135.43 134.496 134.555 133.838 133.725 133.121C130.903 130.645 130.85 127.945 131.938 124.629C133.246 120.582 133.695 116.325 133.239 112.112C132.645 106.697 130.583 101.521 129.366 96.2C128.735 93.5866 128.438 90.9153 128.491 88.2295C129.412 87.701 130.378 87.2594 131.382 86.8974C134.463 85.7753 141.866 83.3067 143.22 87.4911C144.635 91.9939 142.482 98.104 142.923 102.824C143.151 105.307 141.318 120.206 141.774 122.66C143.182 130.174 145.875 125.382 146.133 133.012C146.21 133.765 146.111 134.518 145.844 135.227L145.852 135.242Z" fill="url(#paint4_linear_20_229)"/>
<path d="M130.835 130.478C130.933 130.196 131.116 129.943 131.352 129.74C131.595 129.602 131.877 129.53 132.158 129.537C133.961 129.443 135.719 130.015 137.415 130.587L145.213 133.171C149.123 134.475 153.117 135.792 157.263 135.93C158.252 135.959 159.416 136.002 159.979 136.784C160.542 137.566 160.131 138.659 159.356 139.224C158.542 139.738 157.591 140.02 156.617 140.034C152.554 140.396 148.461 139.926 144.604 138.652C142.261 137.884 140.04 136.82 137.712 136.017C135.612 135.307 133.398 134.931 131.169 134.909C130.081 134.909 129.922 134.388 129.975 133.273C130.074 132.296 130.363 131.347 130.827 130.471L130.835 130.478Z" fill="#231F20"/>
<path d="M130.835 130.478C130.933 130.196 131.116 129.943 131.352 129.74C131.595 129.602 131.877 129.53 132.158 129.537C133.961 129.443 135.719 130.015 137.415 130.587L145.213 133.171C149.123 134.475 153.117 135.792 157.263 135.93C158.252 135.959 159.416 136.002 159.979 136.784C160.542 137.566 160.131 138.659 159.356 139.224C158.542 139.738 157.591 140.02 156.617 140.034C152.554 140.396 148.461 139.926 144.604 138.652C142.261 137.884 140.04 136.82 137.712 136.017C135.612 135.307 133.398 134.931 131.169 134.909C130.081 134.909 129.922 134.388 129.975 133.273C130.074 132.296 130.363 131.347 130.827 130.471L130.835 130.478Z" fill="url(#paint5_linear_20_229)"/>
<path d="M142.162 73.3019L142.314 73.3454C143.859 73.7001 145.373 74.1489 146.849 74.6991C147.701 74.9959 148.499 75.4158 149.207 75.9588C149.785 76.4293 150.242 77.0157 150.843 77.4501C151.596 78.1089 152.752 78.1089 153.505 77.4501C154.22 76.842 154.586 75.9515 154.479 75.0466C154.121 73.0775 155.377 70.6813 155.255 69.5737C155.012 67.3222 153.46 67.2788 151.915 65.5486C150.538 64.0066 148.446 62.2329 146.308 63.565C144.878 64.4771 144.543 65.592 144.194 67.1195C143.92 68.1909 143.547 69.2334 143.075 70.2397C142.702 71.0867 141.926 71.9265 141.828 72.8386C141.805 72.9617 141.828 73.092 141.888 73.2006C141.964 73.2657 142.056 73.3019 142.147 73.3164L142.162 73.3019Z" fill="#FFAA71"/>
<path d="M150.805 70.9635C151.337 72.1942 152.098 73.4321 153.338 74.0402C153.513 74.1416 153.718 74.1923 153.924 74.1706C154.304 74.1054 154.494 73.7 154.593 73.3453C154.981 71.9987 155.05 70.5219 155.841 69.3564C156.039 69.074 156.29 68.7627 156.206 68.4225C156.145 68.2487 156.039 68.0895 155.894 67.9736C154.7 66.895 153.193 66.1783 151.573 65.9249C150.006 65.7801 149.755 66.9167 149.937 68.1402C150.097 69.1102 150.386 70.0586 150.805 70.9563V70.9635Z" fill="url(#paint6_linear_20_229)"/>
<path d="M164.369 54.4361C164.369 56.2822 164.46 58.2875 165.715 59.6991C166.073 60.1118 166.56 60.5317 166.514 61.0746C166.453 61.7479 165.639 62.0664 165.092 62.5008C163.92 63.4347 163.935 65.1214 163.935 66.5765C163.935 68.0317 163.646 69.7763 162.254 70.3844C161.744 70.5654 161.204 70.6523 160.656 70.6306C158.625 70.7464 156.586 70.5437 154.624 70.037C152.653 69.5085 150.926 68.3574 149.732 66.7792C149.04 65.8019 148.629 64.6509 147.86 63.7098C147.092 62.7686 145.92 61.994 145.167 60.9588C144.102 59.4602 143.973 57.5346 144.825 55.9202C144.901 55.7464 145.03 55.6017 145.198 55.5003C145.822 55.218 146.537 56.1229 147.107 55.7826C146.963 52.1774 149.085 48.8401 152.501 47.2909C155.651 45.9299 158.853 46.6176 161.775 48.0944C164.582 49.4844 164.407 51.6272 164.361 54.4361H164.369Z" fill="#FFAA71"/>
<path d="M164.529 48.0076C165.533 47.2185 166.423 46.3136 167.191 45.3073C166.218 45.1553 165.229 45.0684 164.24 45.0611C164.803 44.7643 165.297 44.3589 165.7 43.8739C164.886 43.6712 164.049 43.5409 163.205 43.5047C163.395 43.273 163.57 42.911 163.35 42.7301C163.289 42.6866 163.22 42.6504 163.144 42.6287C160.558 41.6152 157.834 40.9637 155.05 40.6886C152.022 40.4786 148.979 40.9854 146.202 42.1581C143.463 43.3454 140.892 45.3145 140.093 48.0872C139.264 50.954 140.466 53.9294 141.242 56.8106C141.942 59.4168 142.284 62.0954 142.718 64.7595C142.718 65.2373 142.946 65.6933 143.341 65.9974C143.935 66.3087 144.627 65.8598 145.137 65.44L146.575 64.2527C146.864 64.0572 147.084 63.7894 147.229 63.4853C147.45 62.8265 146.894 62.1895 146.461 61.6176C145.411 60.2204 145.023 58.4684 145.411 56.7889C145.441 56.5573 145.563 56.3473 145.738 56.1953C146.126 55.9202 146.712 56.2315 146.902 56.6514C147.039 57.093 147.115 57.5563 147.122 58.0124C147.145 58.4829 147.45 58.8956 147.914 59.0693C148.34 58.092 148.127 56.9844 148.119 55.9202C148.096 51.5114 151.679 47.8411 156.297 47.5298C157.758 47.4212 159.219 47.8049 160.405 48.6157C161.79 49.4627 163.175 48.9921 164.521 48.0003L164.529 48.0076Z" fill="#231F20"/>
<path d="M143.646 89.8511C142.429 91.4438 140.686 92.6093 138.701 93.1668C137.598 93.5215 136.472 93.7821 135.323 93.9486C132.143 94.4336 128.902 94.506 125.707 94.1586C124.543 93.8473 123.295 94.202 122.489 95.0635C119.111 97.742 114.935 99.2985 110.606 100.146C109.313 100.399 108.012 100.587 106.703 100.739C104.969 100.92 103.143 101.014 101.522 100.399C99.9019 99.7835 98.5401 98.256 98.7151 96.5982C98.9053 94.7015 100.868 93.4853 102.61 92.5586C105.357 91.0891 108.111 89.6195 110.864 88.1571C113.36 86.8395 115.847 85.5147 118.594 84.8994C119.21 84.8053 119.811 84.6243 120.366 84.3637C120.983 83.9583 121.523 83.437 121.941 82.8434C124.33 79.9549 127.449 77.6962 131.002 76.2556C132.546 75.5389 134.273 75.2493 135.985 75.4158C138.183 75.7488 139.629 77.0447 140.937 78.6156C142.246 80.1866 143.851 81.5258 144.521 83.5963C145.205 85.703 144.878 87.9834 143.631 89.8366L143.646 89.8511Z" fill="#FFAA71"/>
<path d="M110.248 99.8487C111.085 101.376 111.762 102.983 112.264 104.641L116 115.717C116.357 116.789 117.323 116.905 118.251 117.498C119.309 118.157 120.275 118.939 121.135 119.822C121.256 119.938 121.355 120.075 121.416 120.227C121.538 120.611 121.196 120.988 120.846 121.205C120.496 121.422 120.085 121.632 119.933 122.008C119.727 122.501 120.085 123.036 120.442 123.442C120.868 123.797 121.112 124.31 121.112 124.853C121.005 125.396 120.412 125.708 119.864 125.852C119.286 125.932 118.738 126.135 118.259 126.446C118.076 126.627 117.879 126.794 117.673 126.946C116.92 127.373 115.962 126.634 115.094 126.794C114.904 126.844 114.714 126.902 114.524 126.975C113.443 127.322 112.622 126.895 111.762 126.338C110.902 125.78 110.127 125.266 109.746 124.216C109.457 123.311 109.381 122.363 109.526 121.429C109.64 120.872 109.67 120.307 109.617 119.742C109.51 119.265 109.335 118.809 109.084 118.381C108.149 116.579 107.167 114.798 106.14 113.046C104.018 109.426 101.674 105.886 100.275 101.963C99.7573 100.522 99.3845 98.9003 100.069 97.5248C100.647 96.4389 101.728 95.6716 102.983 95.4471C106.094 94.839 108.818 97.4959 110.233 99.8631L110.248 99.8487Z" fill="#FFAA71"/>
<path d="M129.488 148.338C132.166 153.673 137.233 157.554 142.611 160.486C147.51 163.157 152.775 165.177 158.245 166.487C158.701 166.632 159.188 166.661 159.66 166.567C160.185 166.35 160.618 165.98 160.907 165.503C164.475 160.775 167.549 155.729 170.09 150.437C170.379 149.96 170.516 149.409 170.493 148.859C170.303 148.157 169.846 147.542 169.215 147.129L163.456 142.337C162.269 141.251 160.923 140.331 159.462 139.615C158.024 139.086 156.533 138.688 155.012 138.427C151.063 137.493 147.404 135.763 143.684 134.228C140.709 132.998 136.434 130.833 133.064 131.333C126.026 132.361 127.381 144.154 129.488 148.331V148.338Z" fill="#231F20"/>
<path d="M129.488 148.338C132.166 153.673 137.233 157.554 142.611 160.486C147.51 163.157 152.775 165.177 158.245 166.487C158.701 166.632 159.188 166.661 159.66 166.567C160.185 166.35 160.618 165.98 160.907 165.503C164.475 160.775 167.549 155.729 170.09 150.437C170.379 149.96 170.516 149.409 170.493 148.859C170.303 148.157 169.846 147.542 169.215 147.129L163.456 142.337C162.269 141.251 160.923 140.331 159.462 139.615C158.024 139.086 156.533 138.688 155.012 138.427C151.063 137.493 147.404 135.763 143.684 134.228C140.709 132.998 136.434 130.833 133.064 131.333C126.026 132.361 127.381 144.154 129.488 148.331V148.338Z" fill="url(#paint7_linear_20_229)"/>
<path d="M96.8284 208.374C96.3263 208.215 95.7937 208.193 95.2992 208.041C93.9755 207.657 93.093 206.499 92.4236 205.348C92.279 205.051 92.066 204.783 91.7997 204.573C91.2292 204.248 90.5064 204.277 89.9587 204.646C89.4338 205.015 88.9317 205.413 88.4524 205.833C87.6764 206.304 86.8776 206.738 86.056 207.129C85.2191 207.527 84.6029 208.258 84.3823 209.12C84.3366 209.836 84.504 210.546 84.8692 211.176C87.9198 217.756 91.9443 223.888 96.8208 229.383C97.0794 229.658 97.3913 229.976 97.7793 229.926C98.038 229.875 98.2738 229.73 98.4336 229.528C99.8638 228.029 100.533 226.009 100.259 224.004C99.9703 221.991 98.7531 220.218 98 218.314C97.3153 216.584 97.0186 214.737 97.1175 212.891C97.2011 211.53 98.6238 208.953 96.836 208.374H96.8284Z" fill="#231F20"/>
<path d="M193.248 198.196C192.981 198.623 192.844 199.115 192.586 199.557C191.916 200.7 190.539 201.287 189.223 201.67C188.888 201.743 188.569 201.88 188.295 202.076C187.846 202.546 187.732 203.22 187.998 203.799C188.265 204.363 188.561 204.914 188.888 205.449C189.208 206.275 189.489 207.107 189.725 207.954C189.961 208.816 190.585 209.532 191.429 209.923C192.16 210.112 192.928 210.104 193.651 209.894C201.045 208.425 208.181 205.949 214.83 202.546C215.173 202.373 215.553 202.134 215.591 201.772C215.591 201.518 215.492 201.272 215.317 201.084C214.077 199.441 212.137 198.398 210.015 198.232C207.885 198.087 205.808 198.825 203.693 199.158C201.776 199.433 199.813 199.332 197.934 198.862C196.572 198.514 194.221 196.661 193.255 198.203L193.248 198.196Z" fill="#231F20"/>
<path d="M96.8284 208.374C96.3263 208.215 95.7937 208.193 95.2992 208.041C93.9755 207.657 93.093 206.499 92.4236 205.348C92.279 205.051 92.066 204.783 91.7997 204.573C91.2292 204.248 90.5064 204.277 89.9587 204.646C89.4338 205.015 88.9317 205.413 88.4524 205.833C87.6764 206.304 86.8776 206.738 86.056 207.129C85.2191 207.527 84.6029 208.258 84.3823 209.12C84.3366 209.836 84.504 210.546 84.8692 211.176C87.9198 217.756 91.9443 223.888 96.8208 229.383C97.0794 229.658 97.3913 229.976 97.7793 229.926C98.038 229.875 98.2738 229.73 98.4336 229.528C99.8638 228.029 100.533 226.009 100.259 224.004C99.9703 221.991 98.7531 220.218 98 218.314C97.3153 216.584 97.0186 214.737 97.1175 212.891C97.2011 211.53 98.6238 208.953 96.836 208.374H96.8284Z" fill="url(#paint8_linear_20_229)"/>
<path d="M193.248 198.196C192.981 198.623 192.844 199.115 192.586 199.557C191.916 200.7 190.539 201.287 189.223 201.67C188.888 201.743 188.569 201.88 188.295 202.076C187.846 202.546 187.732 203.22 187.998 203.799C188.265 204.363 188.561 204.914 188.888 205.449C189.208 206.275 189.489 207.107 189.725 207.954C189.961 208.816 190.585 209.532 191.429 209.923C192.16 210.112 192.928 210.104 193.651 209.894C201.045 208.425 208.181 205.949 214.83 202.546C215.173 202.373 215.553 202.134 215.591 201.772C215.591 201.518 215.492 201.272 215.317 201.084C214.077 199.441 212.137 198.398 210.015 198.232C207.885 198.087 205.808 198.825 203.693 199.158C201.776 199.433 199.813 199.332 197.934 198.862C196.572 198.514 194.221 196.661 193.255 198.203L193.248 198.196Z" fill="url(#paint9_linear_20_229)"/>
<path d="M142.238 77.5658C141.843 77.8916 141.371 78.2608 140.877 78.116C140.694 78.0581 140.527 77.964 140.382 77.8409C139.142 76.9215 137.78 76.1614 136.335 75.5678C136.031 75.4447 135.65 75.1696 135.818 74.8945C135.871 74.8221 135.939 74.7642 136.015 74.7208C137.339 73.9099 138.754 73.2294 140.23 72.7082C140.481 72.5996 140.747 72.5417 141.021 72.5272C141.363 72.5562 141.691 72.6503 141.987 72.8023C142.809 73.1715 146.346 74.2574 146.042 75.1262C145.738 75.9949 142.238 76.4872 142.238 77.5658Z" fill="url(#paint10_linear_20_229)"/>
<path d="M138.8 93.7531C138.609 93.7821 138.419 93.8038 138.221 93.8255C136.266 94.05 134.364 94.1368 132.409 94.2744C130.317 94.4264 127.761 94.6508 125.707 94.1586C124.543 93.8473 123.295 94.202 122.489 95.0635C119.111 97.742 114.935 99.2985 110.606 100.146C110.53 100.095 110.461 100.03 110.393 99.9718C108.491 98.2922 111.64 97.3511 112.888 96.6272C114.98 95.4327 116.913 93.9993 118.647 92.3632C118.913 92.0808 119.225 91.8347 119.568 91.6392C120.442 91.1976 121.5 91.4872 122.466 91.6899C125.813 92.3921 129.26 92.0085 132.615 91.5741C135.673 91.1759 138.594 91.1035 141.082 89.1127C142.847 87.7083 144.064 85.6957 144.452 83.5384C145.274 84.7836 145.297 86.4052 144.817 87.8024C144.338 89.1996 143.402 90.423 142.398 91.5451C141.675 92.3487 140.869 93.145 139.827 93.507C139.492 93.6228 139.142 93.688 138.784 93.7387L138.8 93.7531Z" fill="url(#paint11_linear_20_229)"/>
<path d="M203.649 235.638C199.997 235.638 197.608 232.901 198.316 229.535L217.312 138.449C218.179 134.952 221.413 132.448 225.194 132.346C228.838 132.346 231.226 135.083 230.519 138.449L211.515 229.535C210.648 233.024 207.422 235.529 203.656 235.638H203.649Z" fill="#231F20"/>
<path d="M203.649 235.638C199.997 235.638 197.608 232.901 198.316 229.535L217.312 138.449C218.179 134.952 221.413 132.448 225.194 132.346C228.838 132.346 231.226 135.083 230.519 138.449L211.515 229.535C210.648 233.024 207.422 235.529 203.656 235.638H203.649Z" fill="url(#paint12_linear_20_229)"/>
<path d="M201.268 226.349H57.955C52.0896 226.349 47.3347 230.874 47.3347 236.456V241.118C47.3347 246.699 52.0896 251.224 57.955 251.224H201.268C207.133 251.224 211.888 246.699 211.888 241.118V236.456C211.888 230.874 207.133 226.349 201.268 226.349Z" fill="#231F20"/>
<path d="M179.137 226.349H53.7327C48.216 226.349 43.7439 230.605 43.7439 235.855V241.719C43.7439 246.968 48.216 251.224 53.7327 251.224H179.137C184.654 251.224 189.126 246.968 189.126 241.719V235.855C189.126 230.605 184.654 226.349 179.137 226.349Z" fill="#231F20"/>
<path d="M189.118 235.848V241.726C189.118 246.967 184.652 251.209 179.152 251.209H53.7251C48.2172 251.209 43.7591 246.96 43.7591 241.726V235.848C43.7591 230.606 48.2248 226.364 53.7251 226.364H179.137C184.645 226.364 189.103 230.613 189.103 235.848H189.118Z" fill="url(#paint13_linear_20_229)"/>
<path d="M54.1968 233.335H175.409C178.665 233.335 181.305 235.848 181.305 238.939C181.305 242.037 178.665 244.542 175.409 244.542H54.1968C50.9407 244.542 48.3008 242.03 48.3008 238.939C48.3008 235.84 50.9407 233.335 54.1968 233.335Z" fill="#61CA3D"/>
<path d="M255.487 112.836L230.861 140.983H170.997L155.211 136.183L153.339 135.618L152.716 131.101L210.914 128.35L228.252 109.89L234.962 110.527L247.027 111.656L255.487 112.836Z" fill="#231F20"/>
<path d="M255.487 112.836L230.861 140.983H170.997L155.211 136.183L155.173 135.886L213.371 133.135L234.962 110.527L255.487 112.836Z" fill="url(#paint14_linear_20_229)"/>
<path d="M203.405 134.96C203.405 135.358 203.36 135.756 203.284 136.147L184.272 227.204C184.242 227.348 184.204 227.5 184.158 227.645C182.636 226.798 180.902 226.349 179.137 226.349H171.255L190.077 136.147C190.944 132.65 194.177 130.138 197.951 130.044C201.161 130.03 203.405 132.158 203.405 134.967V134.96Z" fill="#231F20"/>
<defs>
<linearGradient id="paint0_linear_20_229" x1="105.608" y1="90.9081" x2="119.993" y2="208.078" gradientUnits="userSpaceOnUse">
<stop/>
<stop offset="0.15" stop-opacity="0.47"/>
<stop offset="1" stop-opacity="0"/>
</linearGradient>
<linearGradient id="paint1_linear_20_229" x1="147.503" y1="153.232" x2="112.064" y2="161.482" gradientUnits="userSpaceOnUse">
<stop/>
<stop offset="0.13" stop-opacity="0.69"/>
<stop offset="1" stop-opacity="0"/>
</linearGradient>
<linearGradient id="paint2_linear_20_229" x1="161.121" y1="84.0958" x2="175.506" y2="201.258" gradientUnits="userSpaceOnUse">
<stop/>
<stop offset="0.13" stop-opacity="0.69"/>
<stop offset="1" stop-opacity="0"/>
</linearGradient>
<linearGradient id="paint3_linear_20_229" x1="148.644" y1="114.697" x2="188.613" y2="101.961" gradientUnits="userSpaceOnUse">
<stop/>
<stop offset="0.13" stop-opacity="0.69"/>
<stop offset="1" stop-opacity="0"/>
</linearGradient>
<linearGradient id="paint4_linear_20_229" x1="40.2961" y1="101.246" x2="177.7" y2="116.076" gradientUnits="userSpaceOnUse">
<stop/>
<stop offset="0.13" stop-opacity="0.69"/>
<stop offset="1" stop-opacity="0"/>
</linearGradient>
<linearGradient id="paint5_linear_20_229" x1="143.554" y1="125.997" x2="147.614" y2="154.016" gradientUnits="userSpaceOnUse">
<stop/>
<stop offset="0.13" stop-opacity="0.69"/>
<stop offset="1" stop-opacity="0"/>
</linearGradient>
<linearGradient id="paint6_linear_20_229" x1="163.616" y1="58.0268" x2="143.226" y2="82.0679" gradientUnits="userSpaceOnUse">
<stop/>
<stop offset="0.13" stop-opacity="0.69"/>
<stop offset="1" stop-opacity="0"/>
</linearGradient>
<linearGradient id="paint7_linear_20_229" x1="159.888" y1="129.422" x2="126.785" y2="179.372" gradientUnits="userSpaceOnUse">
<stop/>
<stop offset="0.13" stop-opacity="0.69"/>
<stop offset="1" stop-opacity="0"/>
</linearGradient>
<linearGradient id="paint8_linear_20_229" x1="95.6492" y1="188.422" x2="88.0147" y2="261.948" gradientUnits="userSpaceOnUse">
<stop/>
<stop offset="0.13" stop-opacity="0.69"/>
<stop offset="1" stop-opacity="0"/>
</linearGradient>
<linearGradient id="paint9_linear_20_229" x1="203.343" y1="188.241" x2="195.708" y2="261.767" gradientUnits="userSpaceOnUse">
<stop/>
<stop offset="0.13" stop-opacity="0.69"/>
<stop offset="1" stop-opacity="0"/>
</linearGradient>
<linearGradient id="paint10_linear_20_229" x1="44.1152" y1="65.8598" x2="181.519" y2="80.6896" gradientUnits="userSpaceOnUse">
<stop/>
<stop offset="0.13" stop-opacity="0.69"/>
<stop offset="1" stop-opacity="0"/>
</linearGradient>
<linearGradient id="paint11_linear_20_229" x1="130.218" y1="44.9453" x2="127.076" y2="105.107" gradientUnits="userSpaceOnUse">
<stop/>
<stop offset="0.13" stop-opacity="0.69"/>
<stop offset="1" stop-opacity="0"/>
</linearGradient>
<linearGradient id="paint12_linear_20_229" x1="199.814" y1="182.03" x2="269.138" y2="192.322" gradientUnits="userSpaceOnUse">
<stop/>
<stop offset="0.13" stop-opacity="0.69"/>
<stop offset="1" stop-opacity="0"/>
</linearGradient>
<linearGradient id="paint13_linear_20_229" x1="183.831" y1="202.163" x2="80.1954" y2="264.349" gradientUnits="userSpaceOnUse">
<stop/>
<stop offset="0.13" stop-opacity="0.69"/>
<stop offset="1" stop-opacity="0"/>
</linearGradient>
<linearGradient id="paint14_linear_20_229" x1="203.025" y1="122.718" x2="254.907" y2="166.805" gradientUnits="userSpaceOnUse">
<stop/>
<stop offset="0.13" stop-opacity="0.69"/>
<stop offset="1" stop-opacity="0"/>
</linearGradient>
</defs>
</svg>
